<?xml version="1.0" standalone="no"?>
<!DOCTYPE svg PUBLIC "-//W3C//DTD SVG 20010904//EN"
 "http://www.w3.org/TR/2001/REC-SVG-20010904/DTD/svg10.dtd">
<svg version="1.0" xmlns="http://www.w3.org/2000/svg"
 width="368.000000pt" height="137.000000pt" viewBox="0 0 368.000000 137.000000"
 preserveAspectRatio="xMidYMid meet">

<g transform="translate(0.000000,137.000000) scale(0.100000,-0.100000)"
fill="#000000" stroke="none">
<path d="M2010 1210 c-41 -11 -115 -40 -165 -65 -50 -25 -104 -45 -121 -45
-40 0 -148 -54 -174 -87 -18 -24 -19 -28 -6 -41 13 -14 21 -11 63 22 45 35 88
54 99 43 3 -3 -2 -20 -11 -38 -23 -43 -16 -116 15 -159 46 -64 114 -99 362
-185 64 -23 86 -37 137 -88 71 -71 111 -144 111 -200 0 -31 -7 -46 -34 -73
-31 -31 -40 -34 -91 -34 -31 0 -123 16 -204 35 -80 19 -165 39 -189 45 -106
25 -209 0 -253 -61 -16 -22 -24 -51 -27 -91 -4 -57 -4 -58 22 -58 24 0 26 3
26 46 0 59 12 79 60 104 73 37 153 23 340 -63 246 -112 397 -79 480 104 68
151 -24 264 -290 357 -161 56 -284 140 -316 217 -19 46 -18 98 4 124 l17 22
75 -26 c110 -38 194 -43 248 -16 78 40 122 92 122 144 0 27 -32 64 -67 78 -39
15 -152 9 -233 -11z m228 -46 c28 -19 28 -30 -4 -71 -34 -44 -73 -63 -132 -63
-51 0 -184 40 -189 57 -4 12 107 73 152 84 56 13 149 10 173 -7z m-474 -294
l7 -25 -20 24 c-12 13 -21 37 -21 55 0 48 14 54 21 9 3 -21 9 -49 13 -63z
m603 -352 c12 -11 27 -33 33 -49 15 -35 5 -112 -15 -129 -13 -11 -15 -5 -15
34 0 46 -21 101 -61 158 -11 14 -19 29 -19 33 0 9 47 -20 77 -47z m-87 -298
c0 -5 -10 -10 -22 -9 -22 0 -22 1 -3 9 11 5 21 9 23 9 1 1 2 -3 2 -9z"/>
<path d="M308 864 c-53 -17 -78 -30 -78 -40 0 -13 8 -14 40 -9 l40 7 -10 -27
c-6 -15 -15 -72 -21 -126 -13 -123 2 -283 36 -384 30 -85 85 -144 137 -146 81
-3 114 12 174 80 l31 35 16 -31 c22 -41 69 -80 115 -93 78 -24 145 34 225 195
47 93 110 270 121 340 6 37 12 43 72 74 64 33 119 85 108 102 -11 19 -41 8
-94 -36 -30 -25 -60 -45 -66 -45 -6 0 -16 18 -23 39 -14 49 -53 81 -96 81 -43
0 -65 -33 -65 -99 0 -42 4 -53 26 -70 17 -13 41 -21 67 -21 l40 0 -7 -42 c-20
-125 -133 -373 -202 -446 -35 -37 -47 -43 -74 -40 -44 4 -68 39 -90 130 -17
71 -17 74 3 123 31 77 64 196 78 277 18 108 -5 159 -64 144 -73 -18 -149 -319
-119 -477 11 -62 11 -62 -21 -108 -18 -25 -49 -55 -69 -66 -55 -30 -86 -15
-123 60 l-30 60 1 215 c1 170 5 226 18 270 31 100 31 100 5 100 -13 -1 -59
-12 -101 -26z m798 -91 c6 -30 4 -33 -16 -33 -48 0 -73 47 -49 92 11 20 11 20
35 -3 13 -13 26 -39 30 -56z m-322 -21 c-17 -130 -58 -287 -73 -278 -9 6 -6
142 4 230 7 60 40 112 60 96 9 -7 12 -25 9 -48z m-467 -239 c-2 -16 -4 -3 -4
27 0 30 2 43 4 28 2 -16 2 -40 0 -55z m41 -219 l-4 -29 -12 28 c-13 31 -7 56
10 39 5 -5 8 -22 6 -38z"/>
<path d="M3261 653 c-53 -62 -122 -198 -128 -256 -5 -43 -8 -47 -59 -74 -29
-15 -56 -24 -60 -20 -5 4 6 37 24 73 37 75 39 84 12 84 -13 0 -26 -13 -39 -37
-20 -41 -118 -126 -132 -117 -13 8 -11 32 6 58 14 21 14 27 -7 69 -13 25 -29
46 -35 47 -7 0 -26 -21 -41 -46 -19 -30 -53 -62 -103 -95 -80 -53 -90 -56
-108 -35 -9 10 -9 21 1 42 16 39 58 84 77 84 9 0 22 9 29 20 10 17 10 21 -2
26 -38 15 -140 -80 -152 -140 -7 -43 16 -86 46 -86 22 0 70 20 70 29 0 4 14
15 30 25 l31 18 -6 -25 c-13 -49 11 -34 60 39 27 41 56 74 63 74 14 0 14 -4
-5 -93 -6 -30 11 -57 36 -57 9 0 32 13 51 30 41 34 50 37 50 12 0 -23 19 -42
43 -42 10 0 39 16 64 35 l46 35 16 -33 c22 -45 61 -48 101 -9 16 16 32 42 35
58 11 51 14 54 40 54 29 0 29 2 11 -41 -29 -71 27 -129 91 -95 47 24 148 109
134 114 -6 2 -31 -14 -55 -36 -43 -39 -102 -62 -125 -47 -21 12 -11 25 39 50
52 26 74 58 68 99 -5 33 -58 33 -96 2 -23 -20 -41 -26 -76 -26 -36 0 -48 -4
-52 -17 -10 -34 -42 -88 -58 -98 -12 -7 -19 -6 -26 5 -17 27 -11 56 23 100 92
122 156 243 141 267 -18 29 -30 25 -73 -24z m-26 -138 c-37 -69 -55 -90 -55
-65 0 26 79 154 89 145 3 -3 -13 -39 -34 -80z m215 -94 c0 -12 -59 -71 -71
-71 -17 0 -9 24 18 52 26 27 53 37 53 19z"/>
<path d="M3067 543 c-15 -15 -7 -43 13 -43 15 0 20 7 20 25 0 24 -18 34 -33
18z"/>
<path d="M1169 412 c-34 -31 -42 -46 -46 -84 -5 -41 -3 -48 20 -63 24 -15 28
-15 66 4 46 24 111 78 111 93 0 5 -19 -6 -42 -26 -40 -35 -96 -55 -118 -41
-15 9 -3 23 35 39 43 18 69 58 61 91 -9 36 -40 32 -87 -13z m57 -20 c-8 -24
-56 -59 -56 -40 0 13 51 70 58 64 2 -3 1 -13 -2 -24z"/>
</g>
</svg>
