<?xml version="1.0" standalone="no"?>
<!DOCTYPE svg PUBLIC "-//W3C//DTD SVG 20010904//EN"
 "http://www.w3.org/TR/2001/REC-SVG-20010904/DTD/svg10.dtd">
<svg version="1.0" xmlns="http://www.w3.org/2000/svg"
 width="7813.000000pt" height="7813.000000pt" viewBox="0 0 7813.000000 7813.000000"
 preserveAspectRatio="xMidYMid meet">

<g transform="translate(0.000000,7813.000000) scale(0.100000,-0.100000)"
fill="#000000" stroke="none">
<path d="M18635 47520 c-1460 -59 -2817 -275 -4105 -655 -983 -290 -1928 -754
-2490 -1223 -98 -82 -294 -278 -363 -362 -133 -165 -243 -366 -291 -533 -14
-49 -41 -166 -60 -260 -200 -985 -88 -1613 394 -2217 131 -164 219 -258 1044
-1125 531 -557 691 -727 942 -995 1172 -1257 1965 -2188 2452 -2883 324 -461
740 -1211 906 -1634 118 -298 167 -527 168 -768 0 -175 -17 -282 -67 -433 -92
-276 -275 -542 -580 -848 -378 -379 -822 -693 -1355 -958 -1447 -719 -3220
-873 -5200 -450 -579 124 -896 218 -1515 451 -1868 704 -3622 1689 -4899 2752
-86 72 -156 127 -156 124 0 -3 45 -115 99 -247 283 -686 570 -1451 749 -1996
100 -306 147 -465 207 -705 l53 -210 323 -98 c2163 -651 4448 -1217 5904
-1461 827 -139 1326 -186 1960 -186 2295 0 4467 629 5955 1724 1056 777 1802
1842 2014 2876 50 245 60 355 61 655 0 352 -23 547 -100 857 -180 719 -562
1416 -1240 2263 -437 546 -902 1062 -1871 2075 -616 644 -789 829 -1022 1090
-530 593 -835 1022 -1071 1505 -224 459 -297 835 -221 1143 74 301 302 548
670 724 946 452 3466 700 5175 507 241 -27 486 -70 675 -117 521 -132 906
-392 1045 -706 168 -381 43 -918 -384 -1648 -45 -76 -81 -140 -81 -142 0 -2
705 -6 1568 -10 862 -3 1630 -9 1708 -12 l141 -6 124 114 c390 360 723 823
863 1201 126 337 131 664 16 940 -97 234 -326 471 -632 653 -404 240 -918 421
-1753 618 -1523 358 -2636 522 -4120 607 -243 14 -1365 20 -1640 9z"/>
<path d="M57170 46050 c-717 -39 -1830 -159 -2774 -300 -197 -30 -200 -31
-244 -67 -69 -56 -627 -615 -820 -821 -1004 -1069 -2190 -2517 -3607 -4402
-758 -1009 -1975 -2696 -2081 -2887 -30 -53 -41 -64 -72 -72 -643 -160 -1346
-421 -2607 -966 -931 -403 -1063 -458 -1154 -476 -150 -31 -200 36 -146 196
32 96 67 161 198 365 613 957 1860 2415 3221 3765 303 300 335 336 366 399 61
129 52 238 -28 350 -30 40 -51 56 -117 87 -410 191 -1300 367 -2379 468 l-209
20 -67 -60 c-83 -73 -399 -408 -626 -664 -576 -646 -1381 -1609 -2328 -2785
l-238 -294 -144 -62 c-558 -241 -1730 -864 -3414 -1817 -272 -154 -524 -295
-560 -314 -113 -58 -183 -40 -209 53 -10 37 -8 45 43 149 235 478 906 1333
2486 3170 637 741 828 969 905 1081 37 53 40 63 40 123 0 95 -38 156 -189 307
-240 238 -514 422 -1561 1044 -506 301 -653 415 -726 565 -31 64 -34 77 -34
165 0 81 4 102 24 140 45 84 83 129 167 190 162 119 216 208 194 317 -20 94
-131 233 -226 281 -82 42 -152 55 -259 49 -104 -5 -127 -11 -525 -144 -586
-196 -1506 -723 -2260 -1294 -360 -272 -519 -422 -579 -548 -33 -70 -36 -83
-36 -166 0 -80 4 -97 32 -158 59 -124 160 -233 313 -337 32 -22 66 -50 74 -62
14 -19 14 -24 1 -43 -8 -11 -22 -34 -30 -51 -52 -102 -610 -646 -1555 -1515
-329 -302 -1109 -1012 -1292 -1176 -1100 -982 -2929 -2421 -4688 -3688 -329
-237 -615 -413 -920 -565 -576 -288 -1001 -366 -1264 -233 -73 37 -175 144
-213 224 -56 118 -74 205 -80 396 -36 1141 835 2856 2406 4743 603 724 1341
1483 1796 1847 352 281 722 486 1020 564 128 34 334 34 415 1 71 -28 135 -90
169 -161 24 -51 26 -67 26 -181 -1 -114 -3 -133 -32 -217 -131 -377 -584 -998
-1211 -1662 l-136 -143 105 6 c509 33 825 66 1188 126 449 74 867 194 1071
308 36 20 128 66 205 103 1157 547 1720 1254 1513 1899 -83 257 -307 499 -602
647 -593 299 -1734 430 -2796 322 -1689 -171 -3243 -853 -4580 -2008 -169
-147 -829 -798 -1065 -1051 -919 -988 -1708 -2196 -2221 -3403 -409 -961 -640
-1946 -559 -2375 51 -265 176 -485 409 -717 154 -153 249 -225 469 -353 665
-390 1241 -560 1827 -539 804 29 1595 355 2905 1195 438 282 1411 940 1855
1256 1240 881 3015 2367 5030 4211 525 480 927 855 1616 1507 l81 78 42 -30
c83 -61 280 -179 438 -264 179 -96 233 -143 253 -217 26 -97 -13 -185 -146
-329 -514 -555 -1169 -1403 -1912 -2475 -541 -781 -1276 -1913 -1721 -2653
-256 -426 -299 -522 -308 -687 -4 -84 -3 -93 24 -144 33 -62 48 -71 423 -251
549 -262 995 -440 1340 -532 100 -27 136 -31 280 -36 190 -5 281 8 446 63 216
72 384 176 611 379 599 534 1305 1042 2093 1506 458 270 882 481 1104 549 184
57 222 -6 103 -171 -29 -40 -141 -192 -248 -338 -480 -652 -549 -769 -549
-928 0 -114 15 -133 208 -265 645 -442 1221 -758 1516 -831 96 -24 258 -23
361 4 182 46 332 140 530 330 193 186 789 663 1270 1017 1118 822 2128 1408
2966 1722 380 142 729 229 993 247 l99 7 -7 -29 c-28 -111 -199 -439 -629
-1204 -137 -245 -273 -489 -301 -543 l-51 -98 0 -97 c0 -90 3 -102 33 -165 21
-43 57 -90 98 -132 58 -58 87 -75 287 -176 122 -62 400 -207 617 -324 764
-410 1044 -555 1510 -780 498 -241 775 -361 1120 -484 506 -179 909 -187 1379
-26 587 201 1143 585 2576 1780 1926 1606 2010 1680 2665 2335 745 744 1392
1493 2045 2365 627 838 1087 1563 1541 2430 l89 170 0 90 c0 109 -18 148 -108
242 -155 161 -464 310 -812 390 l-120 27 -410 0 c-346 0 -448 -3 -655 -22
-558 -52 -1367 -145 -1409 -163 -24 -10 -636 -371 -1326 -782 -486 -290 -1045
-630 -1223 -746 -165 -107 -213 -130 -264 -131 -139 -1 -63 281 180 666 527
835 1647 2153 3647 4294 1026 1098 1055 1130 1129 1278 31 61 36 130 13 165
-31 48 -79 61 -237 63 -80 1 -215 -2 -300 -6z m-3573 -7550 c30 -86 31 -234 4
-341 -98 -384 -476 -931 -1570 -2269 -365 -447 -1088 -1213 -1436 -1522 -878
-778 -1732 -1289 -2157 -1288 -101 0 -143 24 -183 105 -29 58 -30 64 -29 200
1 155 16 239 80 435 260 806 1032 1902 1965 2791 94 90 235 227 313 305 77 77
197 185 266 240 69 55 184 148 255 206 396 321 798 594 1186 805 444 241 942
406 1209 400 l74 -2 23 -65z"/>
<path d="M47960 45284 c-526 -33 -821 -99 -1154 -259 -463 -223 -864 -648
-989 -1050 -45 -144 -52 -193 -51 -355 1 -132 5 -169 26 -250 71 -266 192
-472 398 -680 238 -239 455 -358 752 -409 281 -49 765 -54 1042 -11 599 92
1053 347 1360 764 233 316 356 657 356 986 0 223 -76 467 -202 653 -218 322
-607 542 -1043 591 -135 16 -399 26 -495 20z"/>
<path d="M66900 42559 c-809 -40 -1854 -214 -2910 -485 -765 -196 -1753 -575
-2572 -987 l-296 -149 -149 -166 c-1167 -1305 -2351 -2740 -3195 -3872 -710
-953 -1186 -1689 -1501 -2320 -142 -284 -204 -430 -277 -650 -116 -350 -163
-604 -163 -895 -1 -401 102 -664 329 -845 312 -248 977 -644 1664 -989 321
-162 432 -210 529 -226 352 -60 845 8 1381 191 188 64 289 104 645 259 1131
490 3685 1442 5575 2076 3231 1085 5962 1754 7950 1949 264 25 596 50 683 50
37 0 67 3 67 8 0 4 -105 70 -232 146 -333 200 -595 364 -823 516 -469 313
-1014 580 -1184 580 -34 0 -160 -33 -756 -202 -2504 -705 -5372 -1603 -6894
-2157 -1033 -377 -1772 -672 -3286 -1316 -966 -411 -1209 -501 -1451 -541
-150 -25 -392 -25 -489 0 -300 78 -396 288 -288 631 45 143 433 983 657 1420
195 382 323 604 460 798 l58 83 167 58 c712 249 1633 630 2399 993 1397 663
2653 1432 3652 2237 380 306 743 639 1246 1141 437 437 664 686 900 990 400
515 559 896 462 1108 -101 218 -501 414 -1038 506 -360 62 -839 84 -1320 60z
m-1338 -1606 c112 -50 221 -166 250 -266 7 -23 12 -82 11 -132 0 -74 -6 -107
-32 -185 -96 -285 -319 -586 -780 -1052 -404 -410 -687 -636 -1331 -1060 -696
-460 -1373 -828 -1775 -964 -171 -59 -235 -55 -235 12 0 69 101 293 225 499
78 131 325 500 435 650 421 576 932 1170 1402 1630 409 401 761 650 1113 788
203 79 348 107 535 103 111 -2 143 -6 182 -23z"/>
<path d="M69505 33910 c-282 -52 -458 -146 -669 -358 -137 -139 -180 -197
-252 -348 -90 -187 -124 -343 -124 -564 0 -339 124 -643 355 -875 145 -146
254 -221 430 -295 132 -56 247 -79 430 -86 236 -9 416 27 621 126 284 137 577
476 658 762 75 263 72 518 -11 783 -71 230 -283 507 -493 647 -181 120 -272
156 -524 208 -124 25 -283 25 -421 0z m455 -144 c197 -42 346 -114 512 -248
178 -144 300 -339 359 -573 29 -114 37 -384 15 -517 -27 -166 -103 -339 -206
-473 -47 -61 -181 -181 -266 -237 -69 -46 -222 -122 -301 -149 -31 -10 -106
-29 -167 -40 -217 -42 -451 -4 -686 110 -115 56 -188 108 -273 196 -132 134
-198 231 -275 405 -100 223 -108 495 -22 752 142 423 486 727 885 781 78 11
364 6 425 -7z"/>
<path d="M69240 32665 l0 -735 100 0 100 0 0 330 0 330 175 0 c170 0 175 -1
189 -22 7 -13 78 -161 157 -330 l144 -308 122 0 121 0 -159 336 c-87 185 -159
338 -159 340 0 2 23 10 50 18 120 36 214 116 262 222 29 65 32 224 5 299 -33
96 -108 163 -232 208 -113 40 -191 47 -544 47 l-331 0 0 -735z m629 585 c147
-16 207 -53 254 -159 39 -88 9 -246 -58 -301 -8 -7 -57 -24 -108 -38 -80 -22
-119 -25 -304 -29 l-213 -5 0 264 c0 146 3 268 7 271 10 11 316 8 422 -3z"/>
</g>
</svg>
